<?xml version="1.0" encoding="UTF-8"?> <!-- Generator: Adobe Illustrator 23.0.0, SVG Export Plug-In . SVG Version: 6.00 Build 0) --> <svg xmlns="http://www.w3.org/2000/svg" xmlns:xlink="http://www.w3.org/1999/xlink" version="1.1" id="Capa_1" x="0px" y="0px" viewBox="0 0 116 99" style="enable-background:new 0 0 116 99;" xml:space="preserve"> <style type="text/css"> .st0{fill:#333333;} </style> <g> <g> <path class="st0" d="M20,51.1c-1.1,0-2,0.9-2,2c0,1.1,0.9,2,2,2s2-0.9,2-2C22,52,21.1,51.1,20,51.1z"></path> <path class="st0" d="M106.9,51.1c2.7-2.1,3.8-5.5,3.3-8.7c-0.7-4.4-4.8-7.7-9.5-7.7c-2.3,0-17.1,0-19.5,0l0.6-1.8 c3.5-10.4,0.2-21.5-7.4-28C70.2,1.3,63,2.5,60.7,8.6c-0.2,0.4-0.2,0.9,0,1.3c1.7,5.4,1.7,9,0.1,12.5c-1.7,3.6-5.4,7.4-12.2,12.7 c-1.6,1.3-3.1,2.1-4.5,2.8c-2.2,1.2-4.3,2.3-6.4,4.9h-7.4v-2c0-1.1-0.9-2-2-2H7.7c-1.1,0-2,0.9-2,2V94c0,1.1,0.9,2,2,2h20.4 c1.1,0,2-0.9,2-2v-6.1h11.5c5.9,5.3,13.6,8.2,21.6,8.2c4.7,0,20.4,0,25.6,0c5.1,0,9.2-4.1,9.2-9.2c0-1.9-0.6-3.6-1.6-5.1H97 c5.1,0,9.2-4.1,9.2-9.2c0-2.1-0.7-4.1-2-5.7c3.5-1.3,6-4.6,6-8.6C110.3,55.4,109,52.8,106.9,51.1z M26.1,92H9.8V43h16.3V92z M101.1,63.4c-2,0-17.5,0-19.6,0c-1.1,0-2,0.9-2,2s0.9,2,2,2H97c2.8,0,5.1,2.3,5.1,5.1c0,2.8-2.3,5.1-5.1,5.1 c-5.7,0-10.8,0-15.5,0c-1.1,0-2,0.9-2,2c0,1.1,0.9,2,2,2h7.4c2.8,0,5.1,2.3,5.1,5.1c0,2.8-2.3,5.1-5.1,5.1c-5.3,0-21.2,0-25.6,0 c-7.2,0-14.1-2.7-19.4-7.6c-0.4-0.4-0.9-0.5-1.4-0.5H30.2V47h8.4c0.6,0,1.3-0.3,1.6-0.8c1.8-2.5,3.5-3.4,5.7-4.6 c1.5-0.8,3.1-1.7,5-3.2c14-10.8,17.2-17.4,13.8-29c1.4-2.6,4.7-3.3,7.1-1.2c6.5,5.7,8.9,14.9,6,23.5l-1,3.1h-2.6c-1.1,0-2,0.9-2,2 c0,1.1,0.9,2,2,2c3.1,0,23.2,0,26.4,0c2.7,0,5,1.8,5.4,4.2c0.5,3.3-2,6-5,6c-2.1,0-17.6,0-19.6,0c-1.1,0-2,0.9-2,2 c0,1.1,0.9,2,2,2c2,0,17.5,0,19.6,0c2.8,0,5.1,2.3,5.1,5.1C106.2,61.1,103.9,63.4,101.1,63.4z"></path> <path class="st0" d="M20,59.3c-1.1,0-2,0.9-2,2v20.4c0,1.1,0.9,2,2,2s2-0.9,2-2V61.3C22,60.2,21.1,59.3,20,59.3z"></path> </g> </g> </svg> 