<?xml version="1.0" encoding="UTF-8"?> <!-- Generator: Adobe Illustrator 23.0.0, SVG Export Plug-In . SVG Version: 6.00 Build 0) --> <svg xmlns="http://www.w3.org/2000/svg" xmlns:xlink="http://www.w3.org/1999/xlink" version="1.1" id="Capa_1" x="0px" y="0px" viewBox="0 0 116 99" style="enable-background:new 0 0 116 99;" xml:space="preserve"> <style type="text/css"> .st0{fill:#333333;} </style> <g> <g> <path class="st0" d="M45.9,80c2,0,4-0.4,5.9-0.8c5.5-1.2,6.9-1.2,12.4,0c4.9,1,10.5,2.2,14.1-3.9c5-8.3-1-17.1-7.3-17.1 c-2.3,0-3.4-1-4.9-2.4C64.5,54,62.4,52,58,52c-4.4,0-6.5,2-8.2,3.7c-1.5,1.4-2.5,2.4-4.9,2.4c-6.2,0-12.3,8.8-7.3,17.1 C39.9,78.9,42.8,80,45.9,80L45.9,80z M44.9,61.4c3.7,0,5.5-1.8,7.2-3.3c1.5-1.5,2.9-2.7,5.9-2.7c3,0,4.4,1.3,5.9,2.7 c1.6,1.6,3.5,3.3,7.2,3.3c3.7,0,8.1,6,4.4,12.1c-2.4,3.9-5.3,3.5-10.6,2.4c-6-1.3-7.8-1.3-13.8,0c-5.3,1.1-8.2,1.5-10.6-2.4 C36.8,67.3,41.3,61.4,44.9,61.4L44.9,61.4z M44.9,61.4"></path> <path class="st0" d="M56.2,42.8c0-3.7-2.5-6.7-5.6-6.7c-3.1,0-5.6,3-5.6,6.7c0,3.7,2.5,6.7,5.6,6.7C53.7,49.4,56.2,46.4,56.2,42.8 L56.2,42.8z M48.3,42.8c0-1.8,1-3.3,2.3-3.3c1.2,0,2.3,1.5,2.3,3.3c0,1.8-1,3.3-2.3,3.3C49.3,46.1,48.3,44.6,48.3,42.8L48.3,42.8z M48.3,42.8"></path> <path class="st0" d="M43.7,48.1c-0.9-3.7-4.1-5.8-7-5.1c-3,0.7-4.7,4.2-3.8,7.8c0.8,3.1,3.3,5.3,5.9,5.3 C42.3,56,44.7,52.2,43.7,48.1L43.7,48.1z M36.1,50c-0.6-2.6,1.1-4.9,3-3.3c2.1,1.7,1.9,5.5,0,6C37.9,52.9,36.5,51.7,36.1,50 L36.1,50z M36.1,50"></path> <path class="st0" d="M71,42.8c0-3.7-2.5-6.7-5.6-6.7c-3.1,0-5.6,3-5.6,6.7c0,3.7,2.5,6.7,5.6,6.7C68.5,49.4,71,46.4,71,42.8 L71,42.8z M63.2,42.8c0-1.8,1-3.3,2.3-3.3c1.2,0,2.3,1.5,2.3,3.3c0,1.8-1,3.3-2.3,3.3C64.2,46.1,63.2,44.6,63.2,42.8L63.2,42.8z M63.2,42.8"></path> <path class="st0" d="M82.8,46c-0.7-1.5-2-2.6-3.5-3c-3-0.7-6.2,1.6-7,5.1c-1,4.2,1.5,8,5,8C81.7,56,84.8,50.3,82.8,46L82.8,46z M79.9,50c-0.6,2.6-3.2,3.8-4.2,1.5c-1.1-2.4,0.9-5.8,2.8-5.3c0.7,0.2,1.2,1.2,1.2,1.2S80.2,49,79.9,50L79.9,50z M79.9,50"></path> <path class="st0" d="M58,12.1C50.8,5.4,42.4,1.8,33.6,1.6C25.1,1.4,17.1,4.5,11,10.1c-0.7,0.6-0.7,1.7-0.1,2.4 c0.6,0.7,1.7,0.7,2.4,0.1c10.3-9.6,28.6-11.7,43.6,3c0.6,0.6,1.7,0.6,2.3,0C85.3-10,123.4,14.4,108.1,49 c-3.5,7.9-9.4,15.7-17.6,23.2v-8.7c0-0.9-0.7-1.7-1.7-1.7c-0.9,0-1.7,0.7-1.7,1.7v11.6c-7.7,6.5-17.1,12.7-28,18.6 c-0.7,0.4-1.5,0.4-2.2,0c-10.9-5.8-20.3-12.1-28-18.6V31c0-1.6,0.6-3.1,1.8-4.3c3.8-3.8,10.3-1.1,10.3,4.3c0,0.9,0.7,1.7,1.7,1.7 c0.9,0,1.7-0.7,1.7-1.7c0-1.6,0.6-3.1,1.8-4.3c3.8-3.8,10.3-1.1,10.3,4.3c0,0.9,0.7,1.7,1.7,1.7c0.9,0,1.7-0.7,1.7-1.7 c0-1.6,0.6-3.1,1.8-4.3c3.8-3.8,10.3-1.1,10.3,4.3c0,0.9,0.7,1.7,1.7,1.7c0.9,0,1.7-0.7,1.7-1.7c0-1.6,0.6-3.1,1.8-4.3 c3.8-3.8,10.3-1.1,10.3,4.3v25.9c0,0.9,0.7,1.7,1.7,1.7c0.9,0,1.7-0.7,1.7-1.7V31c0-5.2-4.2-9.4-9.4-9.4c-3.1,0-6,1.5-7.7,4 c-3.7-5.3-11.6-5.4-15.4,0c-3.7-5.3-11.6-5.4-15.4,0c-3.3-4.8-10.2-5.4-14.3-1.3c-1.8,1.8-2.7,4.1-2.7,6.6v41.2 c-10.5-9.7-17.4-20-20-30c-2.3-9.1-1.1-17.9,3.6-24.9c0.5-0.8,0.3-1.8-0.5-2.3c-0.8-0.5-1.8-0.3-2.3,0.5c-7.3,10.9-8,27,3.8,44.3 c10.7,15.6,28.5,28,45.2,36.9c1.7,0.9,3.7,0.9,5.3,0c19.5-10.4,41.5-26.1,50.5-46.3c3.6-8.1,4.7-16.4,3.1-23.9 C109.3,3,79.9-7.9,58,12.1L58,12.1z M58,12.1"></path> </g> </g> </svg> 