<?xml version="1.0" encoding="UTF-8"?> <!-- Generator: Adobe Illustrator 23.0.0, SVG Export Plug-In . SVG Version: 6.00 Build 0) --> <svg xmlns="http://www.w3.org/2000/svg" xmlns:xlink="http://www.w3.org/1999/xlink" version="1.1" id="Capa_1" x="0px" y="0px" viewBox="0 0 116 99" style="enable-background:new 0 0 116 99;" xml:space="preserve"> <style type="text/css"> .st0{fill:#333333;} </style> <g> <path class="st0" d="M102.9,64c1.8-2.3,2.8-5.2,2.8-8.1V34.3c0-3.5-2.8-6.3-6.3-6.3c-0.9,0-1.8,0.2-2.6,0.6V23 c0-0.8-0.6-1.4-1.4-1.4c-0.8,0-1.4,0.6-1.4,1.4v8.1c-0.6,0.9-0.9,2-0.9,3.2V43l-1.9,0.7c-3.1,1.2-5.7,3.2-7.5,5.9 c-1.9,2.7-2.8,5.9-2.8,9.2c0,0.8,0.6,1.4,1.4,1.4c0.8,0,1.4-0.6,1.4-1.4c0-5.5,3.4-10.5,8.6-12.5l2.8-1.1c0.5-0.2,0.9-0.7,0.9-1.3 v-9.7c0-1.9,1.6-3.5,3.5-3.5c1.9,0,3.5,1.6,3.5,3.5v21.6c0,2.3-0.8,4.6-2.2,6.4l-4.7,6.1c-0.2,0.2-0.3,0.5-0.3,0.9v15h-4.9 c-0.8,0-1.4,0.6-1.4,1.4c0,0.8,0.6,1.4,1.4,1.4h5.8c2,0,3.6,1.6,3.6,3.6c0,2-1.6,3.6-3.6,3.6H63.1c-2,0-3.6-1.6-3.6-3.6 c0-2,1.6-3.6,3.6-3.6h21.7c0.8,0,1.4-0.6,1.4-1.4c0-0.8-0.6-1.4-1.4-1.4H64.1V70.9c0-0.3-0.1-0.6-0.2-0.8L62,67.5 c-1.7-2.5-2.6-5.4-2.6-8.4c0,0,0,0,0-0.1V17.6c0,0,0,0,0,0c0-1.8,1.5-3.2,3.3-3.2c1.8,0,3.3,1.5,3.3,3.3v16.9 c0,0.8,0.6,1.4,1.4,1.4c0.8,0,1.4-0.6,1.4-1.4V12.3c0-1.8,1.5-3.3,3.3-3.3c1.8,0,3.3,1.5,3.3,3.3v22.2c0,0.8,0.6,1.4,1.4,1.4 c0.8,0,1.4-0.6,1.4-1.4V8.1c0-1.8,1.5-3.3,3.3-3.3c1.8,0,3.3,1.5,3.3,3.3v26.4c0,0.8,0.6,1.4,1.4,1.4c0.8,0,1.4-0.6,1.4-1.4V13.6 c0-1.8,1.5-3.3,3.3-3.3c1.8,0,3.3,1.5,3.3,3.3V17c0,0.8,0.6,1.4,1.4,1.4c0.8,0,1.4-0.6,1.4-1.4v-3.5c0-3.3-2.7-6.1-6.1-6.1 c-1.2,0-2.3,0.4-3.3,1V8.1c0-3.3-2.7-6.1-6.1-6.1c-3.1,0-5.6,2.3-6,5.3c-1-0.6-2.1-1-3.3-1c-3.3,0-6.1,2.7-6.1,6.1v0.2 c-0.9-0.6-2.1-1-3.3-1c-1.9,0-3.6,0.9-4.7,2.2c-1.1-1.3-2.8-2.2-4.7-2.2c-1.2,0-2.3,0.4-3.3,1v-0.2c0-3.3-2.7-6.1-6.1-6.1 c-1.2,0-2.4,0.4-3.3,1c-0.4-3-2.9-5.3-6-5.3c-3.3,0-6.1,2.7-6.1,6.1v0.4c-0.9-0.6-2.1-1-3.3-1c-3.3,0-6.1,2.7-6.1,6.1v15 c-0.8-0.4-1.7-0.6-2.6-0.6c-3.5,0-6.3,2.8-6.3,6.3v21.6c0,2.9,1,5.8,2.8,8.1l4.4,5.7V74c0,0.8,0.6,1.4,1.4,1.4 c0.8,0,1.4-0.6,1.4-1.4v-4.7c0-0.3-0.1-0.6-0.3-0.9l-4.7-6.1c-1.4-1.8-2.2-4.1-2.2-6.4V34.3c0-1.9,1.6-3.5,3.5-3.5 c1.9,0,3.5,1.6,3.5,3.5v9.7c0,0.6,0.4,1.1,0.9,1.3l2.8,1.1c5.1,2,8.6,7,8.6,12.5c0,0.8,0.6,1.4,1.4,1.4c0.8,0,1.4-0.6,1.4-1.4 c0-3.3-1-6.4-2.8-9.2c-1.9-2.7-4.5-4.8-7.5-5.9L23,43v-8.7c0-1.2-0.3-2.3-0.9-3.2V13.6c0-1.8,1.5-3.3,3.3-3.3 c1.8,0,3.3,1.5,3.3,3.3v20.9c0,0.8,0.6,1.4,1.4,1.4c0.8,0,1.4-0.6,1.4-1.4V8.1c0-1.8,1.5-3.3,3.3-3.3c1.8,0,3.3,1.5,3.3,3.3v26.4 c0,0.8,0.6,1.4,1.4,1.4c0.8,0,1.4-0.6,1.4-1.4V12.3c0-1.8,1.5-3.3,3.3-3.3c1.8,0,3.3,1.5,3.3,3.3v22.2c0,0.8,0.6,1.4,1.4,1.4 c0.8,0,1.4-0.6,1.4-1.4V17.6c0-1.8,1.5-3.3,3.3-3.3c1.8,0,3.3,1.5,3.3,3.2c0,0,0,0,0,0V59c0,0,0,0,0,0.1c0,3-0.9,5.9-2.6,8.4 l-1.8,2.6c-0.2,0.2-0.2,0.5-0.2,0.8v13.4H20.3v-4.4c0-0.8-0.6-1.4-1.4-1.4c-0.8,0-1.4,0.6-1.4,1.4v4.7c-2.6,0.8-4.5,3.2-4.5,6.1 c0,3.5,2.8,6.4,6.4,6.4h33.4c2.1,0,4-1,5.1-2.6c1.2,1.6,3,2.6,5.1,2.6h33.4c3.5,0,6.4-2.9,6.4-6.4c0-2.9-1.9-5.3-4.5-6.1V69.8 L102.9,64z M56.3,69.1c0.7-1,1.3-2,1.7-3.1c0.5,1.1,1,2.1,1.7,3.1l1.6,2.3v13.2c-1.3,0.4-2.5,1.2-3.3,2.4c-0.8-1.1-1.9-1.9-3.3-2.4 V71.3L56.3,69.1z M52.9,94.2H19.4c-2,0-3.6-1.6-3.6-3.6c0-2,1.6-3.6,3.6-3.6h33.4c2,0,3.6,1.6,3.6,3.6 C56.4,92.6,54.8,94.2,52.9,94.2L52.9,94.2z M52.9,94.2"></path> </g> </svg> 